<svg width="231" height="48" viewBox="0 0 231 48" fill="none" xmlns="http://www.w3.org/2000/svg">
<rect x="0.0625" width="230.938" height="48" rx="4" fill="#1A1B24"/>
<path d="M37.25 18.5156H46.4297V30H44.8906V19.8594H38.7812V30H37.25V18.5156ZM54.5234 25.8047C54.5234 25.3411 54.4714 24.9167 54.3672 24.5312C54.263 24.1406 54.1068 23.8047 53.8984 23.5234C53.6901 23.2422 53.4323 23.0234 53.125 22.8672C52.8229 22.7057 52.4714 22.625 52.0703 22.625C51.6693 22.625 51.3177 22.7057 51.0156 22.8672C50.7135 23.0234 50.4583 23.2422 50.25 23.5234C50.0417 23.8047 49.8854 24.1406 49.7812 24.5312C49.6771 24.9167 49.625 25.3411 49.625 25.8047C49.625 26.2734 49.6771 26.7057 49.7812 27.1016C49.8854 27.4922 50.0417 27.8281 50.25 28.1094C50.4583 28.3906 50.7135 28.612 51.0156 28.7734C51.3177 28.9297 51.6693 29.0078 52.0703 29.0078C52.4714 29.0078 52.8229 28.9297 53.125 28.7734C53.4323 28.612 53.6901 28.3906 53.8984 28.1094C54.1068 27.8281 54.263 27.4922 54.3672 27.1016C54.4714 26.7057 54.5234 26.2734 54.5234 25.8047ZM55.9609 25.8047C55.9609 26.4922 55.8724 27.112 55.6953 27.6641C55.5182 28.2109 55.263 28.6771 54.9297 29.0625C54.5964 29.4479 54.1875 29.7448 53.7031 29.9531C53.224 30.1562 52.6797 30.2578 52.0703 30.2578C51.4609 30.2578 50.9167 30.1562 50.4375 29.9531C49.9583 29.7448 49.5521 29.4479 49.2188 29.0625C48.8854 28.6771 48.6302 28.2109 48.4531 27.6641C48.276 27.112 48.1875 26.4922 48.1875 25.8047C48.1875 25.1276 48.276 24.5156 48.4531 23.9688C48.6302 23.4219 48.8854 22.9557 49.2188 22.5703C49.5521 22.1849 49.9583 21.8906 50.4375 21.6875C50.9167 21.4792 51.4609 21.375 52.0703 21.375C52.6797 21.375 53.224 21.4792 53.7031 21.6875C54.1875 21.8906 54.5964 22.1849 54.9297 22.5703C55.263 22.9557 55.5182 23.4219 55.6953 23.9688C55.8724 24.5156 55.9609 25.1276 55.9609 25.8047ZM57.5859 21.6328H59.0234V25.6797L63.25 21.6328H65.1328L61.2031 25.3281L65.1953 30H63.3438L60.0781 26.2031L59.0234 27.0859V30H57.5859V21.6328ZM66.3359 24.1406C66.3516 23.6302 66.4479 23.2005 66.625 22.8516C66.8021 22.4974 67.0417 22.2109 67.3438 21.9922C67.6458 21.7734 68.0026 21.6172 68.4141 21.5234C68.8307 21.4245 69.2839 21.375 69.7734 21.375C70.1797 21.375 70.5729 21.4167 70.9531 21.5C71.3385 21.5833 71.6797 21.7188 71.9766 21.9062C72.2734 22.0885 72.5104 22.3281 72.6875 22.625C72.8698 22.9167 72.9609 23.2734 72.9609 23.6953V28.5625C72.9609 28.6979 72.9974 28.8151 73.0703 28.9141C73.1432 29.0078 73.2604 29.0547 73.4219 29.0547C73.4948 29.0547 73.5703 29.0495 73.6484 29.0391C73.7266 29.0234 73.8073 29.0078 73.8906 28.9922V29.9844C73.7708 30.0156 73.651 30.0443 73.5312 30.0703C73.4167 30.0964 73.2786 30.1094 73.1172 30.1094C72.8672 30.1094 72.651 30.0885 72.4688 30.0469C72.2917 30.0052 72.1406 29.9375 72.0156 29.8438C71.8958 29.7448 71.8021 29.6198 71.7344 29.4688C71.6667 29.3125 71.6224 29.1224 71.6016 28.8984C71.4245 29.0911 71.237 29.2708 71.0391 29.4375C70.8411 29.599 70.6198 29.7422 70.375 29.8672C70.1302 29.987 69.8568 30.0807 69.5547 30.1484C69.2526 30.2214 68.9115 30.2578 68.5312 30.2578C68.2083 30.2578 67.8932 30.2057 67.5859 30.1016C67.2839 29.9974 67.0104 29.8438 66.7656 29.6406C66.526 29.4375 66.3333 29.1875 66.1875 28.8906C66.0417 28.5885 65.9688 28.2396 65.9688 27.8438C65.9688 27.4115 66.0417 27.0391 66.1875 26.7266C66.3333 26.4089 66.5234 26.1458 66.7578 25.9375C66.9922 25.724 67.2604 25.5599 67.5625 25.4453C67.8646 25.3307 68.1719 25.2552 68.4844 25.2188L70.8359 24.9297C71.0599 24.9036 71.2344 24.8177 71.3594 24.6719C71.4896 24.5208 71.5547 24.2812 71.5547 23.9531C71.5547 23.4479 71.388 23.0859 71.0547 22.8672C70.7266 22.6432 70.2526 22.5312 69.6328 22.5312C68.9974 22.5312 68.5234 22.6667 68.2109 22.9375C67.8984 23.2031 67.7214 23.6042 67.6797 24.1406H66.3359ZM71.5234 25.7422C71.4089 25.8255 71.2656 25.8958 71.0938 25.9531C70.9271 26.0052 70.7422 26.0495 70.5391 26.0859C70.3359 26.1224 70.1198 26.1562 69.8906 26.1875C69.6615 26.2135 69.4323 26.2422 69.2031 26.2734C68.9427 26.3099 68.7031 26.362 68.4844 26.4297C68.2656 26.4974 68.0755 26.5859 67.9141 26.6953C67.7526 26.8047 67.6276 26.9375 67.5391 27.0938C67.4505 27.2448 67.4062 27.4245 67.4062 27.6328C67.4062 27.8724 67.4427 28.0833 67.5156 28.2656C67.5938 28.4479 67.6979 28.6016 67.8281 28.7266C67.9635 28.8516 68.125 28.9453 68.3125 29.0078C68.5 29.0703 68.7057 29.1016 68.9297 29.1016C69.0703 29.1016 69.2318 29.0859 69.4141 29.0547C69.5964 29.0182 69.7839 28.9661 69.9766 28.8984C70.1693 28.8307 70.3568 28.7448 70.5391 28.6406C70.7266 28.5312 70.8932 28.401 71.0391 28.25C71.1849 28.099 71.3021 27.9271 71.3906 27.7344C71.4792 27.5417 71.5234 27.3255 71.5234 27.0859V25.7422ZM77.4219 25.1641H78.1484C78.3411 25.1641 78.5417 25.1406 78.75 25.0938C78.9583 25.0469 79.1484 24.974 79.3203 24.875C79.4922 24.7708 79.6328 24.638 79.7422 24.4766C79.8568 24.3151 79.9141 24.1198 79.9141 23.8906C79.9141 23.724 79.8776 23.5651 79.8047 23.4141C79.737 23.2578 79.6328 23.1224 79.4922 23.0078C79.3568 22.888 79.1849 22.7943 78.9766 22.7266C78.7682 22.6589 78.526 22.625 78.25 22.625C78.1042 22.625 77.9323 22.6458 77.7344 22.6875C77.5365 22.7292 77.3411 22.8073 77.1484 22.9219C76.9609 23.0312 76.7917 23.1901 76.6406 23.3984C76.4948 23.6016 76.401 23.8672 76.3594 24.1953H75.0156C75.0521 23.8203 75.1276 23.4922 75.2422 23.2109C75.3568 22.9245 75.5 22.6771 75.6719 22.4688C75.8438 22.2604 76.0365 22.0859 76.25 21.9453C76.4688 21.8047 76.6927 21.6927 76.9219 21.6094C77.1562 21.526 77.3906 21.4661 77.625 21.4297C77.8594 21.3932 78.0833 21.375 78.2969 21.375C78.6719 21.375 79.0417 21.4245 79.4062 21.5234C79.7708 21.6172 80.0964 21.763 80.3828 21.9609C80.6745 22.1536 80.9089 22.3984 81.0859 22.6953C81.263 22.9922 81.3516 23.3385 81.3516 23.7344C81.3516 23.9896 81.3151 24.2161 81.2422 24.4141C81.1693 24.6068 81.0729 24.776 80.9531 24.9219C80.8385 25.0677 80.7083 25.1927 80.5625 25.2969C80.4167 25.3958 80.2734 25.4792 80.1328 25.5469V25.5859C80.2786 25.612 80.4401 25.6667 80.6172 25.75C80.7943 25.8281 80.9583 25.9427 81.1094 26.0938C81.2604 26.2396 81.3854 26.4297 81.4844 26.6641C81.5885 26.8932 81.6406 27.1745 81.6406 27.5078C81.6406 27.9766 81.5391 28.3828 81.3359 28.7266C81.138 29.0703 80.8776 29.3568 80.5547 29.5859C80.2318 29.8099 79.8672 29.9766 79.4609 30.0859C79.0547 30.2005 78.6458 30.2578 78.2344 30.2578C77.7031 30.2578 77.2214 30.1901 76.7891 30.0547C76.362 29.9193 75.9922 29.7266 75.6797 29.4766C75.3672 29.2266 75.1172 28.9271 74.9297 28.5781C74.7474 28.2292 74.638 27.8438 74.6016 27.4219H76.0469C76.0833 27.7292 76.1719 27.9844 76.3125 28.1875C76.4531 28.3906 76.6224 28.5521 76.8203 28.6719C77.0182 28.7917 77.237 28.8776 77.4766 28.9297C77.7214 28.9818 77.9688 29.0078 78.2188 29.0078C78.8802 29.0078 79.375 28.875 79.7031 28.6094C80.0365 28.3438 80.2031 27.987 80.2031 27.5391C80.2031 27.3464 80.1719 27.1745 80.1094 27.0234C80.0521 26.8724 79.9531 26.7448 79.8125 26.6406C79.6719 26.5312 79.4844 26.4505 79.25 26.3984C79.0208 26.3411 78.7344 26.3125 78.3906 26.3125C78.3229 26.3125 78.2448 26.3151 78.1562 26.3203C78.0729 26.3203 77.987 26.3229 77.8984 26.3281C77.8151 26.3333 77.7318 26.3411 77.6484 26.3516C77.5651 26.3568 77.4896 26.362 77.4219 26.3672V25.1641ZM83.2422 24.1406C83.2578 23.6302 83.3542 23.2005 83.5312 22.8516C83.7083 22.4974 83.9479 22.2109 84.25 21.9922C84.5521 21.7734 84.9089 21.6172 85.3203 21.5234C85.737 21.4245 86.1901 21.375 86.6797 21.375C87.0859 21.375 87.4792 21.4167 87.8594 21.5C88.2448 21.5833 88.5859 21.7188 88.8828 21.9062C89.1797 22.0885 89.4167 22.3281 89.5938 22.625C89.776 22.9167 89.8672 23.2734 89.8672 23.6953V28.5625C89.8672 28.6979 89.9036 28.8151 89.9766 28.9141C90.0495 29.0078 90.1667 29.0547 90.3281 29.0547C90.401 29.0547 90.4766 29.0495 90.5547 29.0391C90.6328 29.0234 90.7135 29.0078 90.7969 28.9922V29.9844C90.6771 30.0156 90.5573 30.0443 90.4375 30.0703C90.3229 30.0964 90.1849 30.1094 90.0234 30.1094C89.7734 30.1094 89.5573 30.0885 89.375 30.0469C89.1979 30.0052 89.0469 29.9375 88.9219 29.8438C88.8021 29.7448 88.7083 29.6198 88.6406 29.4688C88.5729 29.3125 88.5286 29.1224 88.5078 28.8984C88.3307 29.0911 88.1432 29.2708 87.9453 29.4375C87.7474 29.599 87.526 29.7422 87.2812 29.8672C87.0365 29.987 86.763 30.0807 86.4609 30.1484C86.1589 30.2214 85.8177 30.2578 85.4375 30.2578C85.1146 30.2578 84.7995 30.2057 84.4922 30.1016C84.1901 29.9974 83.9167 29.8438 83.6719 29.6406C83.4323 29.4375 83.2396 29.1875 83.0938 28.8906C82.9479 28.5885 82.875 28.2396 82.875 27.8438C82.875 27.4115 82.9479 27.0391 83.0938 26.7266C83.2396 26.4089 83.4297 26.1458 83.6641 25.9375C83.8984 25.724 84.1667 25.5599 84.4688 25.4453C84.7708 25.3307 85.0781 25.2552 85.3906 25.2188L87.7422 24.9297C87.9661 24.9036 88.1406 24.8177 88.2656 24.6719C88.3958 24.5208 88.4609 24.2812 88.4609 23.9531C88.4609 23.4479 88.2943 23.0859 87.9609 22.8672C87.6328 22.6432 87.1589 22.5312 86.5391 22.5312C85.9036 22.5312 85.4297 22.6667 85.1172 22.9375C84.8047 23.2031 84.6276 23.6042 84.5859 24.1406H83.2422ZM88.4297 25.7422C88.3151 25.8255 88.1719 25.8958 88 25.9531C87.8333 26.0052 87.6484 26.0495 87.4453 26.0859C87.2422 26.1224 87.026 26.1562 86.7969 26.1875C86.5677 26.2135 86.3385 26.2422 86.1094 26.2734C85.849 26.3099 85.6094 26.362 85.3906 26.4297C85.1719 26.4974 84.9818 26.5859 84.8203 26.6953C84.6589 26.8047 84.5339 26.9375 84.4453 27.0938C84.3568 27.2448 84.3125 27.4245 84.3125 27.6328C84.3125 27.8724 84.349 28.0833 84.4219 28.2656C84.5 28.4479 84.6042 28.6016 84.7344 28.7266C84.8698 28.8516 85.0312 28.9453 85.2188 29.0078C85.4062 29.0703 85.612 29.1016 85.8359 29.1016C85.9766 29.1016 86.138 29.0859 86.3203 29.0547C86.5026 29.0182 86.6901 28.9661 86.8828 28.8984C87.0755 28.8307 87.263 28.7448 87.4453 28.6406C87.6328 28.5312 87.7995 28.401 87.9453 28.25C88.0911 28.099 88.2083 27.9271 88.2969 27.7344C88.3854 27.5417 88.4297 27.3255 88.4297 27.0859V25.7422ZM94.3906 22.8828H91.5078V21.6328H98.7109V22.8828H95.8281V30H94.3906V22.8828ZM100.164 21.6328H101.602V24.7812H103.922C104.38 24.7812 104.789 24.8438 105.148 24.9688C105.508 25.0885 105.812 25.263 106.062 25.4922C106.312 25.7161 106.503 25.9896 106.633 26.3125C106.768 26.6302 106.836 26.9896 106.836 27.3906C106.836 27.7969 106.768 28.1615 106.633 28.4844C106.503 28.8021 106.312 29.0755 106.062 29.3047C105.812 29.5286 105.508 29.7005 105.148 29.8203C104.789 29.9401 104.38 30 103.922 30H100.164V21.6328ZM101.602 28.8516H103.641C103.891 28.8516 104.122 28.8255 104.336 28.7734C104.555 28.7214 104.742 28.638 104.898 28.5234C105.055 28.4036 105.177 28.2526 105.266 28.0703C105.354 27.8828 105.398 27.6562 105.398 27.3906C105.398 27.1302 105.352 26.9089 105.258 26.7266C105.169 26.5443 105.042 26.3958 104.875 26.2812C104.714 26.1615 104.516 26.0755 104.281 26.0234C104.052 25.9661 103.794 25.9375 103.508 25.9375H101.602V28.8516ZM117.5 25.0859C117.5 24.6901 117.451 24.3411 117.352 24.0391C117.253 23.7318 117.12 23.474 116.953 23.2656C116.786 23.0573 116.594 22.8984 116.375 22.7891C116.156 22.6797 115.927 22.625 115.688 22.625C115.302 22.625 114.974 22.7083 114.703 22.875C114.432 23.0417 114.211 23.2708 114.039 23.5625C113.867 23.849 113.742 24.1849 113.664 24.5703C113.586 24.9557 113.547 25.3672 113.547 25.8047C113.547 26.0391 113.56 26.2839 113.586 26.5391C113.617 26.7943 113.664 27.0443 113.727 27.2891C113.789 27.5339 113.872 27.7656 113.977 27.9844C114.081 28.2031 114.211 28.3958 114.367 28.5625C114.523 28.7292 114.706 28.862 114.914 28.9609C115.128 29.0547 115.375 29.1016 115.656 29.1016C116.255 29.1016 116.711 28.8906 117.023 28.4688C117.341 28.0417 117.5 27.4375 117.5 26.6562V25.0859ZM117.5 28.9922H117.469C117.318 29.2578 117.159 29.474 116.992 29.6406C116.831 29.8021 116.659 29.9271 116.477 30.0156C116.299 30.1094 116.112 30.1719 115.914 30.2031C115.721 30.2396 115.523 30.2578 115.32 30.2578C114.914 30.2578 114.518 30.1615 114.133 29.9688C113.747 29.776 113.404 29.4922 113.102 29.1172C112.805 28.737 112.565 28.2656 112.383 27.7031C112.201 27.1406 112.109 26.4922 112.109 25.7578C112.109 25.3984 112.135 25.0417 112.188 24.6875C112.24 24.3281 112.32 23.987 112.43 23.6641C112.539 23.3411 112.677 23.0391 112.844 22.7578C113.016 22.4766 113.219 22.2344 113.453 22.0312C113.693 21.8281 113.966 21.6693 114.273 21.5547C114.581 21.4349 114.924 21.375 115.305 21.375C115.591 21.375 115.849 21.4167 116.078 21.5C116.307 21.5781 116.508 21.6797 116.68 21.8047C116.857 21.9297 117.008 22.0651 117.133 22.2109C117.263 22.3568 117.375 22.4948 117.469 22.625H117.5V18.5156H118.938V22.625H118.969C119.062 22.4948 119.172 22.3568 119.297 22.2109C119.427 22.0651 119.578 21.9297 119.75 21.8047C119.927 21.6797 120.128 21.5781 120.352 21.5C120.581 21.4167 120.841 21.375 121.133 21.375C121.513 21.375 121.857 21.4349 122.164 21.5547C122.471 21.6693 122.742 21.8281 122.977 22.0312C123.216 22.2344 123.419 22.4766 123.586 22.7578C123.758 23.0391 123.898 23.3411 124.008 23.6641C124.117 23.987 124.198 24.3281 124.25 24.6875C124.302 25.0417 124.328 25.3984 124.328 25.7578C124.328 26.4922 124.237 27.1406 124.055 27.7031C123.872 28.2656 123.63 28.737 123.328 29.1172C123.031 29.4922 122.69 29.776 122.305 29.9688C121.919 30.1615 121.523 30.2578 121.117 30.2578C120.914 30.2578 120.714 30.2396 120.516 30.2031C120.323 30.1719 120.135 30.1094 119.953 30.0156C119.776 29.9271 119.604 29.8021 119.438 29.6406C119.271 29.474 119.115 29.2578 118.969 28.9922H118.938V33.2969H117.5V28.9922ZM120.75 29.1016C121.036 29.1016 121.289 29.0547 121.508 28.9609C121.727 28.862 121.914 28.7292 122.07 28.5625C122.232 28.3958 122.365 28.2031 122.469 27.9844C122.573 27.7656 122.656 27.5339 122.719 27.2891C122.781 27.0443 122.826 26.7943 122.852 26.5391C122.878 26.2839 122.891 26.0391 122.891 25.8047C122.891 25.3672 122.849 24.9557 122.766 24.5703C122.688 24.1849 122.562 23.849 122.391 23.5625C122.219 23.2708 121.997 23.0417 121.727 22.875C121.456 22.7083 121.13 22.625 120.75 22.625C120.51 22.625 120.281 22.6797 120.062 22.7891C119.844 22.8984 119.651 23.0573 119.484 23.2656C119.318 23.474 119.185 23.7318 119.086 24.0391C118.987 24.3411 118.938 24.6901 118.938 25.0859V26.6562C118.938 27.4375 119.094 28.0417 119.406 28.4688C119.719 28.8906 120.167 29.1016 120.75 29.1016ZM125.93 21.6328H127.367V28.0469H127.398L131.508 21.6328H133.156V30H131.711V23.5859H131.68L127.578 30H125.93V21.6328ZM140.906 22.8828H137.703L137.641 24.8906C137.609 25.9062 137.531 26.7552 137.406 27.4375C137.281 28.1146 137.109 28.6589 136.891 29.0703C136.677 29.4818 136.417 29.7734 136.109 29.9453C135.802 30.1172 135.451 30.2031 135.055 30.2031C134.909 30.2031 134.781 30.1797 134.672 30.1328C134.568 30.0911 134.487 30.0469 134.43 30V28.7344C134.633 28.8125 134.812 28.8516 134.969 28.8516C135.078 28.8516 135.182 28.8333 135.281 28.7969C135.385 28.7604 135.482 28.6901 135.57 28.5859C135.664 28.4818 135.75 28.3359 135.828 28.1484C135.906 27.9557 135.974 27.7057 136.031 27.3984C136.094 27.0911 136.143 26.7188 136.18 26.2812C136.221 25.8438 136.25 25.3229 136.266 24.7188L136.336 21.6328H142.344V30H140.906V22.8828ZM144.461 21.6328H145.898V24.7812H148.219C148.677 24.7812 149.086 24.8438 149.445 24.9688C149.805 25.0885 150.109 25.263 150.359 25.4922C150.609 25.7161 150.799 25.9896 150.93 26.3125C151.065 26.6302 151.133 26.9896 151.133 27.3906C151.133 27.7969 151.065 28.1615 150.93 28.4844C150.799 28.8021 150.609 29.0755 150.359 29.3047C150.109 29.5286 149.805 29.7005 149.445 29.8203C149.086 29.9401 148.677 30 148.219 30H144.461V21.6328ZM145.898 28.8516H147.938C148.188 28.8516 148.419 28.8255 148.633 28.7734C148.852 28.7214 149.039 28.638 149.195 28.5234C149.352 28.4036 149.474 28.2526 149.562 28.0703C149.651 27.8828 149.695 27.6562 149.695 27.3906C149.695 27.1302 149.648 26.9089 149.555 26.7266C149.466 26.5443 149.339 26.3958 149.172 26.2812C149.01 26.1615 148.812 26.0755 148.578 26.0234C148.349 25.9661 148.091 25.9375 147.805 25.9375H145.898V28.8516ZM154.688 22.8828H151.805V21.6328H159.008V22.8828H156.125V30H154.688V22.8828ZM160.383 21.6328H161.82V22.7812H161.852C161.945 22.5885 162.062 22.4062 162.203 22.2344C162.349 22.0625 162.521 21.9141 162.719 21.7891C162.922 21.6589 163.154 21.5573 163.414 21.4844C163.68 21.4115 163.982 21.375 164.32 21.375C164.768 21.375 165.198 21.4609 165.609 21.6328C166.021 21.8047 166.385 22.0625 166.703 22.4062C167.021 22.75 167.273 23.1823 167.461 23.7031C167.648 24.2188 167.742 24.8203 167.742 25.5078C167.742 26.3672 167.654 27.099 167.477 27.7031C167.305 28.3021 167.057 28.7917 166.734 29.1719C166.417 29.5521 166.031 29.8281 165.578 30C165.125 30.1719 164.62 30.2578 164.062 30.2578C163.786 30.2578 163.529 30.2214 163.289 30.1484C163.049 30.0755 162.833 29.9818 162.641 29.8672C162.453 29.7474 162.292 29.6172 162.156 29.4766C162.021 29.3307 161.919 29.1901 161.852 29.0547H161.82V33.2969H160.383V21.6328ZM161.789 25.8594C161.789 26.3125 161.833 26.7318 161.922 27.1172C162.01 27.4974 162.146 27.8281 162.328 28.1094C162.516 28.3906 162.747 28.612 163.023 28.7734C163.305 28.9297 163.635 29.0078 164.016 29.0078C164.411 29.0078 164.753 28.9297 165.039 28.7734C165.331 28.612 165.57 28.3906 165.758 28.1094C165.945 27.8281 166.083 27.4974 166.172 27.1172C166.26 26.7318 166.305 26.3125 166.305 25.8594C166.305 25.3854 166.26 24.9505 166.172 24.5547C166.083 24.1589 165.945 23.8177 165.758 23.5312C165.57 23.2448 165.331 23.0234 165.039 22.8672C164.753 22.7057 164.411 22.625 164.016 22.625C163.635 22.625 163.305 22.7057 163.023 22.8672C162.747 23.0234 162.516 23.2448 162.328 23.5312C162.146 23.8177 162.01 24.1589 161.922 24.5547C161.833 24.9505 161.789 25.3854 161.789 25.8594Z" fill="#EDF2F4"/>
<path d="M184.395 18.1172C184.074 18.1172 183.773 18.1797 183.492 18.3047C183.211 18.4219 182.965 18.5859 182.754 18.7969C182.543 19.0078 182.375 19.2539 182.25 19.5352C182.125 19.8164 182.062 20.1172 182.062 20.4375C182.062 20.7578 182.125 21.0586 182.25 21.3398C182.375 21.6211 182.543 21.8672 182.754 22.0781C182.965 22.2891 183.211 22.457 183.492 22.582C183.773 22.6992 184.074 22.7578 184.395 22.7578C184.715 22.7578 185.016 22.6992 185.297 22.582C185.586 22.457 185.836 22.2891 186.047 22.0781C186.258 21.8672 186.426 21.6211 186.551 21.3398C186.668 21.0586 186.727 20.7578 186.727 20.4375C186.727 20.1172 186.668 19.8164 186.551 19.5352C186.426 19.2539 186.258 19.0078 186.047 18.7969C185.836 18.5859 185.586 18.4219 185.297 18.3047C185.016 18.1797 184.715 18.1172 184.395 18.1172ZM184.395 19.3242C184.715 19.3242 184.984 19.4316 185.203 19.6465C185.422 19.8613 185.531 20.125 185.531 20.4375C185.531 20.75 185.422 21.0156 185.203 21.2344C184.984 21.4531 184.715 21.5625 184.395 21.5625C184.074 21.5625 183.805 21.4531 183.586 21.2344C183.367 21.0156 183.258 20.75 183.258 20.4375C183.258 20.125 183.367 19.8613 183.586 19.6465C183.805 19.4316 184.074 19.3242 184.395 19.3242ZM189.363 19.875C189.199 19.875 189.059 19.9336 188.941 20.0508C188.824 20.168 188.766 20.3086 188.766 20.4727C188.766 20.6445 188.824 20.7891 188.941 20.9062C189.059 21.0234 189.199 21.082 189.363 21.082H193.992C194.156 21.082 194.297 21.0234 194.414 20.9062C194.531 20.7891 194.59 20.6445 194.59 20.4727C194.59 20.3086 194.531 20.168 194.414 20.0508C194.297 19.9336 194.156 19.875 193.992 19.875H189.363ZM192.668 25.2422C192.348 25.2422 192.047 25.3008 191.766 25.418C191.484 25.543 191.236 25.7109 191.021 25.9219C190.807 26.1328 190.641 26.3789 190.523 26.6602C190.398 26.9414 190.336 27.2422 190.336 27.5625C190.336 27.8828 190.398 28.1836 190.523 28.4648C190.641 28.7461 190.807 28.9922 191.021 29.2031C191.236 29.4141 191.484 29.5781 191.766 29.6953C192.047 29.8203 192.348 29.8828 192.668 29.8828C192.988 29.8828 193.289 29.8203 193.57 29.6953C193.852 29.5781 194.1 29.4141 194.314 29.2031C194.529 28.9922 194.695 28.7461 194.812 28.4648C194.938 28.1836 195 27.8828 195 27.5625C195 27.2422 194.938 26.9414 194.812 26.6602C194.695 26.3789 194.529 26.1328 194.314 25.9219C194.1 25.7109 193.852 25.543 193.57 25.418C193.289 25.3008 192.988 25.2422 192.668 25.2422ZM192.668 26.4375C192.988 26.4375 193.258 26.5469 193.477 26.7656C193.695 26.9844 193.805 27.25 193.805 27.5625C193.805 27.875 193.695 28.1387 193.477 28.3535C193.258 28.5684 192.988 28.6758 192.668 28.6758C192.348 28.6758 192.078 28.5684 191.859 28.3535C191.641 28.1387 191.531 27.875 191.531 27.5625C191.531 27.25 191.641 26.9844 191.859 26.7656C192.078 26.5469 192.348 26.4375 192.668 26.4375ZM182.684 26.9883C182.52 26.9883 182.379 27.0469 182.262 27.1641C182.145 27.2812 182.086 27.4219 182.086 27.5859C182.086 27.7578 182.145 27.9023 182.262 28.0195C182.379 28.1367 182.52 28.1953 182.684 28.1953H187.301C187.473 28.1953 187.617 28.1367 187.734 28.0195C187.852 27.9023 187.91 27.7578 187.91 27.5859C187.91 27.4219 187.852 27.2812 187.734 27.1641C187.617 27.0469 187.473 26.9883 187.301 26.9883H182.684Z" fill="#EDF2F4"/>
</svg>
